ffmpeg started on 2016-11-26 at 06:57:09
Report written to "Output/NVENCh264/results/ffmpeg/crowd_run_2160p50ll500k.log"
Command line:
Tools/ffmpeg/ffmpeg -benchmark -y -i Input/y4m/crowd_run_2160p50.y4m -c:v h264_nvenc -preset ll -b:v 500k -an Output/NVENCh264/encoded/crowd_run_2160p50ll500k.mkv
ffmpeg version N-82227-gdb23fde Copyright (c) 2000-2016 the FFmpeg developers
  built with gcc 5.4.0 (Ubuntu 5.4.0-6ubuntu1~16.04.2) 20160609
  configuration: --prefix=/home/jaroslav/ffmpeg_build --pkg-config-flags=--static --extra-cflags=-I/home/jaroslav/ffmpeg_build/include --extra-ldflags=-L/home/jaroslav/ffmpeg_build/lib --bindir=/home/jaroslav/bin --enable-gpl --enable-libass --enable-libfdk-aac --enable-libfreetype --enable-libmp3lame --enable-libopus --enable-libtheora --enable-libvorbis --enable-libvpx --enable-libx264 --enable-libx265 --enable-nvenc --enable-libmfx --enable-libxvid --enable-libgsm --enable-libopencore-amrnb --enable-version3 --enable-nonfree
  libavutil      55. 35.100 / 55. 35.100
  libavcodec     57. 66.101 / 57. 66.101
  libavformat    57. 57.100 / 57. 57.100
  libavdevice    57.  2.100 / 57.  2.100
  libavfilter     6. 66.100 /  6. 66.100
  libswscale      4.  3.100 /  4.  3.100
  libswresample   2.  4.100 /  2.  4.100
  libpostproc    54.  2.100 / 54.  2.100
Input #0, yuv4mpegpipe, from 'Input/y4m/crowd_run_2160p50.y4m':
  Duration: 00:00:10.00, start: 0.000000, bitrate: 4976642 kb/s
    Stream #0:0: Video: rawvideo (I420 / 0x30323449), yuv420p(progressive), 3840x2160, SAR 1:1 DAR 16:9, 50 fps, 50 tbr, 50 tbn, 50 tbc
[h264_nvenc @ 0x2c2a1c0] The variable bitrate rate-control requires the 'qmin' and/or 'qmax' option set.
Output #0, matroska, to 'Output/NVENCh264/encoded/crowd_run_2160p50ll500k.mkv':
  Metadata:
    encoder         : Lavf57.57.100
    Stream #0:0: Video: h264 (h264_nvenc) (Main) (H264 / 0x34363248), yuv420p, 3840x2160 [SAR 1:1 DAR 16:9], q=-1--1, 500 kb/s, 50 fps, 1k tbn, 50 tbc
    Metadata:
      encoder         : Lavc57.66.101 h264_nvenc
    Side data:
      cpb: bitrate max/min/avg: 0/0/500000 buffer size: 1000000 vbv_delay: -1
Stream mapping:
  Stream #0:0 -> #0:0 (rawvideo (native) -> h264 (h264_nvenc))
Press [q] to stop, [?] for help
frame=   10 fps=0.0 q=0.0 size=       0kB time=00:00:00.00 bitrate=N/A speed=   0x    frame=   26 fps= 26 q=0.0 size=       0kB time=00:00:00.00 bitrate=N/A speed=   0x    frame=   43 fps= 28 q=49.0 size=       1kB time=00:00:00.24 bitrate=  24.7kbits/s speed=0.157x    frame=   61 fps= 30 q=49.0 size=       1kB time=00:00:00.60 bitrate=   9.9kbits/s speed=0.293x    frame=   79 fps= 31 q=49.0 size=       1kB time=00:00:00.96 bitrate=   6.2kbits/s speed=0.373x    frame=   94 fps= 14 q=49.0 size=       1kB time=00:00:01.26 bitrate=   4.7kbits/s speed=0.189x    frame=   95 fps=8.9 q=49.0 size=       1kB time=00:00:01.28 bitrate=   4.6kbits/s speed=0.121x    frame=   96 fps=7.6 q=49.0 size=       1kB time=00:00:01.30 bitrate=   4.6kbits/s speed=0.103x    frame=  113 fps=8.6 q=49.0 size=       1kB time=00:00:01.64 bitrate=   3.6kbits/s speed=0.124x    frame=  131 fps=9.6 q=49.0 size=       1kB time=00:00:02.00 bitrate=   3.0kbits/s speed=0.146x    frame=  149 fps= 10 q=49.0 size=       1kB time=00:00:02.36 bitrate=   2.5kbits/s speed=0.166x    frame=  167 fps= 11 q=49.0 size=       1kB time=00:00:02.72 bitrate=   2.2kbits/s speed=0.184x    frame=  184 fps= 12 q=49.0 size=       1kB time=00:00:03.06 bitrate=   1.9kbits/s speed= 0.2x    frame=  201 fps= 13 q=49.0 size=       1kB time=00:00:03.40 bitrate=   1.8kbits/s speed=0.215x    frame=  218 fps= 13 q=49.0 size=       1kB time=00:00:03.74 bitrate=   1.6kbits/s speed=0.23x    frame=  236 fps= 14 q=49.0 size=       1kB time=00:00:04.10 bitrate=   1.5kbits/s speed=0.244x    frame=  254 fps= 15 q=49.0 size=       1kB time=00:00:04.46 bitrate=   1.3kbits/s speed=0.257x    frame=  272 fps= 15 q=49.0 size=       1kB time=00:00:04.82 bitrate=   1.2kbits/s speed=0.27x    frame=  289 fps= 16 q=49.0 size=    3006kB time=00:00:05.16 bitrate=4772.0kbits/s speed=0.281x    frame=  307 fps= 16 q=49.0 size=    3006kB time=00:00:05.52 bitrate=4460.9kbits/s speed=0.292x    frame=  325 fps= 17 q=49.0 size=    3006kB time=00:00:05.88 bitrate=4187.8kbits/s speed=0.303x    frame=  343 fps= 17 q=49.0 size=    3006kB time=00:00:06.24 bitrate=3946.2kbits/s speed=0.313x    frame=  361 fps= 18 q=49.0 size=    3006kB time=00:00:06.60 bitrate=3731.0kbits/s speed=0.323x    frame=  379 fps= 18 q=49.0 size=    3006kB time=00:00:06.96 bitrate=3538.1kbits/s speed=0.332x    frame=  397 fps= 18 q=49.0 size=    3006kB time=00:00:07.32 bitrate=3364.1kbits/s speed=0.341x    frame=  415 fps= 19 q=49.0 size=    3006kB time=00:00:07.68 bitrate=3206.4kbits/s speed=0.349x    frame=  433 fps= 19 q=49.0 size=    3006kB time=00:00:08.04 bitrate=3062.9kbits/s speed=0.357x    frame=  451 fps= 20 q=49.0 size=    3006kB time=00:00:08.40 bitrate=2931.6kbits/s speed=0.365x    frame=  469 fps= 20 q=49.0 size=    3006kB time=00:00:08.76 bitrate=2811.1kbits/s speed=0.372x    frame=  487 fps= 20 q=49.0 size=    3006kB time=00:00:09.12 bitrate=2700.2kbits/s speed=0.379x    frame=  500 fps= 20 q=49.0 Lsize=    6248kB time=00:00:09.98 bitrate=5127.8kbits/s speed=0.408x    
video:6243kB audio:0kB subtitle:0kB other streams:0kB global headers:0kB muxing overhead: 0.067978%
bench: utime=1.128s
bench: maxrss=1396572kB
